M48
INCH
T01C0.0236
T02C0.0433
T03C0.0472
T04C0.0709
T05C0.1181
%
T01
X+017387Y+006387
X+016493Y+006487
X+020387Y+010187
X+020987Y+011287
X+020987Y+012687
X+023087Y+014887
X+023487Y+016987
X+022487Y+017287
X+021787Y+017387
X+021387Y+016194
X+020024Y+017787
X+021387Y+020587
X+017487Y+019987
X+016487Y+016587
X+015887Y+015587
X+022487Y+008187
T02
X+013387Y+002587
X+014387Y+002587
X+017087Y+002587
X+018087Y+002587
X+019087Y+002587
X+020087Y+002587
X+010787Y+002587
X+009787Y+002587
X+011887Y+020987
X+012887Y+020987
X+013887Y+020987
X+014887Y+020987
X+015887Y+020987
X+026437Y+018980
X+026437Y+017980
X+026437Y+016980
X+026437Y+015980
X+026437Y+014980
X+026437Y+013980
X+026437Y+012980
X+026437Y+011980
X+026437Y+010980
T03
X+022987Y+006398
X+024956Y+006398
X+024956Y+001476
X+022987Y+001476
T04
X+022200Y+003937
X+025743Y+003937
T05
X+002008Y+021732
X+002008Y+008268
X+026142Y+008268
X+026142Y+021732
T00
M30
