G04 DipTrace 2.4.0.2*
%INLIDARLite.sol*%
%MOIN*%
%ADD10C,0.0098*%
%ADD16R,0.0669X0.0669*%
%ADD17C,0.0669*%
%ADD27R,0.0787X0.0787*%
%ADD28C,0.0787*%
%ADD29C,0.0433*%
%FSLAX44Y44*%
G04*
G70*
G90*
G75*
G01*
%LNBottom*%
%LPD*%
X17087Y2587D2*
D10*
Y3387D1*
X16687Y3787D1*
X13687D1*
X13387Y3487D1*
Y2587D1*
X17087D2*
Y6087D1*
X17387Y6387D1*
X16493Y6487D2*
X11187D1*
X10787Y6087D1*
Y2587D1*
X16493Y6487D2*
Y11987D1*
Y16587D1*
Y20382D1*
X15887Y20987D1*
X20987Y12687D2*
Y11987D1*
X16493D1*
X20987Y11287D2*
Y11987D1*
X16487Y16587D2*
X16493D1*
X15887Y15587D2*
Y19987D1*
X14887Y20987D1*
X23087Y14887D2*
Y16587D1*
X23487Y16987D1*
X22487Y17287D2*
Y8187D1*
X21787Y17387D2*
Y10887D1*
X21287Y10387D1*
X20587D1*
X20387Y10187D1*
X20024Y17787D2*
X19687D1*
X17487Y19987D1*
X21387Y16194D2*
Y20587D1*
D29*
X16493Y6487D3*
D3*
X20987Y12687D3*
X15887Y15587D3*
X23087Y14887D3*
X23487Y16987D3*
X22487Y17287D3*
Y8187D3*
X21787Y17387D3*
X20387Y10187D3*
X20024Y17787D3*
X17487Y19987D3*
X21387Y16194D3*
Y20587D3*
X17387Y6387D3*
X20987Y11287D3*
X16487Y16587D3*
D16*
X13387Y2587D3*
D17*
X14387D3*
D16*
X17087D3*
D17*
X18087D3*
X19087D3*
X20087D3*
D16*
X26437Y18980D3*
D17*
Y17980D3*
Y16980D3*
Y15980D3*
Y14980D3*
Y13980D3*
Y12980D3*
Y11980D3*
Y10980D3*
D16*
X15887Y20987D3*
D17*
X14887D3*
X13887D3*
X12887D3*
X11887D3*
D27*
X22987Y6398D3*
D28*
Y1476D3*
X24956Y6398D3*
Y1476D3*
D16*
X9787Y2587D3*
D17*
X10787D3*
M02*
