G04 DipTrace 2.4.0.2*
%INLIDARLite.crc*%
%MOIN*%
%ADD41R,0.0709X0.2087*%
%ADD43R,0.0276X0.0197*%
%ADD45R,0.0354X0.0315*%
%ADD47R,0.1201X0.0768*%
%ADD49R,0.0295X0.0768*%
%ADD51R,0.0039X0.0551*%
%ADD53R,0.0551X0.0039*%
%ADD59R,0.0315X0.0354*%
%FSLAX44Y44*%
G04*
G70*
G90*
G75*
G01*
%LNTopPaste*%
%LPD*%
D59*
X18787Y7587D3*
Y6918D3*
X14187Y9087D3*
Y8418D3*
D53*
X17287Y16587D3*
Y16391D3*
Y16194D3*
Y15997D3*
Y15800D3*
Y15603D3*
Y15406D3*
Y15209D3*
Y15013D3*
Y14816D3*
Y14619D3*
Y14422D3*
D51*
X17858Y13851D3*
X18055D3*
X18252D3*
X18449D3*
X18646D3*
X18843D3*
X19039D3*
X19236D3*
X19433D3*
X19630D3*
X19827D3*
X20024D3*
D53*
X20594Y14422D3*
Y14619D3*
Y14816D3*
Y15013D3*
Y15209D3*
Y15406D3*
Y15603D3*
Y15800D3*
Y15997D3*
Y16194D3*
Y16391D3*
Y16587D3*
D51*
X20024Y17158D3*
X19827D3*
X19630D3*
X19433D3*
X19236D3*
X19039D3*
X18843D3*
X18646D3*
X18449D3*
X18252D3*
X18055D3*
X17858D3*
D49*
X15587Y7587D3*
X16493D3*
X17398D3*
D47*
X16493Y9871D3*
D59*
X15787Y14287D3*
Y14957D3*
X16487Y17187D3*
Y17857D3*
D45*
X17487Y18187D3*
X18157D3*
X20287Y12687D3*
X19618D3*
D43*
X15087Y22087D3*
X15599D3*
X22487Y17987D3*
X22999D3*
D41*
X13687Y13587D3*
Y17328D3*
D59*
X15387Y18187D3*
Y18857D3*
D45*
X15587Y12887D3*
X16257D3*
X20387Y8787D3*
X21057D3*
X20387Y8087D3*
X21057D3*
M02*
