G04 DipTrace 2.4.0.2*
%INLIDARLite.cmp*%
%MOIN*%
%ADD10C,0.0098*%
%ADD13C,0.013*%
%ADD14C,0.0079*%
%ADD15R,0.0394X0.0433*%
%ADD16R,0.0669X0.0669*%
%ADD17C,0.0669*%
%ADD19R,0.063X0.0118*%
%ADD20R,0.0118X0.063*%
%ADD22R,0.0374X0.0846*%
%ADD23R,0.128X0.0846*%
%ADD24R,0.0433X0.0394*%
%ADD25R,0.0354X0.0276*%
%ADD26R,0.0787X0.2165*%
%ADD27R,0.0787X0.0787*%
%ADD28C,0.0787*%
%ADD29C,0.0433*%
%FSLAX44Y44*%
G04*
G70*
G90*
G75*
G01*
%LNTop*%
%LPD*%
X17398Y7587D2*
D10*
Y6398D1*
X17387Y6387D1*
X18787Y7587D2*
X17398D1*
X15587D2*
D13*
Y6087D1*
X16087Y5587D1*
X18287D1*
X18787Y6087D1*
Y6918D1*
X19827Y13851D2*
D10*
Y13427D1*
X19587Y13187D1*
Y12718D1*
X19618Y12687D1*
X17287Y15209D2*
X16040D1*
X15787Y14957D1*
X18055Y17158D2*
Y17655D1*
X18187Y17787D1*
Y18157D1*
X18157Y18187D1*
X16257Y12887D2*
Y13487D1*
X15687D1*
X15387Y13787D1*
Y14557D1*
X15787Y14957D1*
X16487Y17857D2*
Y18587D1*
X16187Y18887D1*
X15418D1*
X15387Y18857D1*
X18157Y18187D2*
Y18887D1*
X16187D1*
X14387Y2587D2*
Y6387D1*
X15587Y7587D1*
X14187Y8418D2*
X15357D1*
X15587Y8187D1*
Y7587D1*
X22987Y1476D2*
Y6398D1*
X9787Y2587D2*
Y1887D1*
X10287Y1387D1*
X14738D1*
X20337D1*
X23076D1*
X22987Y1476D1*
X14387Y2587D2*
Y1738D1*
X14738Y1387D1*
X20087Y2587D2*
Y1637D1*
X20337Y1387D1*
X11887Y20987D2*
Y8786D1*
X9787Y6686D1*
Y2587D1*
X26437Y17980D2*
X23006D1*
X22999Y17987D1*
X16257Y12887D2*
Y11457D1*
X15987Y11187D1*
X14387D1*
X13787Y10587D1*
Y8487D1*
X13857Y8418D1*
X14187D1*
X22999Y17987D2*
Y18676D1*
X22587Y19087D1*
X18368D1*
X18157Y18887D1*
X19827Y13851D2*
Y14548D1*
X19787Y14587D1*
X17287Y15209D2*
X17965D1*
X17987Y15187D1*
X18055Y17158D2*
Y16220D1*
X18087Y16187D1*
X16493Y7587D2*
D13*
Y9871D1*
X20024Y13851D2*
D10*
Y13351D1*
X20287Y13087D1*
Y12687D1*
X17287Y15013D2*
X16513D1*
X16287Y14787D1*
Y14387D1*
X16187Y14287D1*
X15787D1*
X17287Y16587D2*
X16487D1*
Y17187D1*
X17858Y17158D2*
Y17817D1*
X17487Y18187D1*
X17387D1*
X17287Y18087D1*
Y17387D1*
X17087Y17187D1*
X16487D1*
X14187Y9087D2*
X14987D1*
Y9387D1*
X15487Y9887D1*
X16509D1*
X16493Y9871D1*
X21057Y8087D2*
Y8787D1*
X16493Y7587D2*
Y6487D1*
X15887Y20987D2*
X24987D1*
X26437Y19538D1*
Y18980D1*
X21057Y8787D2*
Y10687D1*
X16687D1*
X16587D1*
X16493Y10593D1*
Y9871D1*
X15787Y14287D2*
X16087D1*
X16687Y13687D1*
Y10687D1*
X15887Y20987D2*
Y21799D1*
X15599Y22087D1*
X20287Y12687D2*
X20987D1*
X26437Y11980D2*
X22680D1*
X21987Y11287D1*
X20987D1*
X16487Y16587D2*
D3*
X14887Y20987D2*
Y21887D1*
X15087Y22087D1*
X17287Y15406D2*
X16069D1*
X15887Y15587D1*
X18646Y17158D2*
Y18346D1*
X18887Y18587D1*
X22087D1*
X22487Y18187D1*
Y17987D1*
X17287Y15800D2*
X16675D1*
X16187Y16287D1*
X15587D1*
X15387Y16487D1*
Y18187D1*
X14547D1*
X13687Y17328D1*
X15587Y12887D2*
X15187D1*
X14387D1*
X13687Y13587D1*
X17287Y15603D2*
X16572D1*
X16087Y16087D1*
X15387D1*
X15187Y15887D1*
Y12887D1*
X20594Y15603D2*
X24803D1*
X25187Y15987D1*
X26430D1*
X26437Y15980D1*
X20594Y15406D2*
X24769D1*
X25187Y14987D1*
X26430D1*
X26437Y14980D1*
X20594Y15209D2*
X22765D1*
X23087Y14887D1*
X23487Y16987D2*
X26430D1*
X26437Y16980D1*
X18646Y13851D2*
Y12229D1*
X18987Y11887D1*
X21587D1*
X22087Y12387D1*
Y13487D1*
X22580Y13980D1*
X26437D1*
X18252Y13851D2*
Y12223D1*
X18787Y11687D1*
X21687D1*
X22987Y12987D1*
X26430D1*
X26437Y12980D1*
X20387Y8087D2*
Y6987D1*
Y3987D1*
X19887Y3487D1*
X19387D1*
X19087Y3187D1*
Y2587D1*
X18843Y17158D2*
Y18043D1*
X19187Y18387D1*
X21387D1*
X22487Y17287D1*
Y8187D2*
X21287Y6987D1*
X20387D1*
Y8787D2*
X20087D1*
X19987Y8687D1*
Y4087D1*
X19687Y3787D1*
X18487D1*
X18087Y3387D1*
Y2587D1*
X19039Y17158D2*
Y17839D1*
X19387Y18187D1*
X20987D1*
X21787Y17387D1*
X20387Y10187D2*
Y8787D1*
X20024Y17158D2*
Y17787D1*
X17487Y19987D2*
X13887D1*
X12887Y20987D1*
X20594Y16194D2*
X21387D1*
Y20587D2*
X16987D1*
X16687Y20287D1*
X14287D1*
X13887Y20687D1*
Y20987D1*
X24956Y1476D2*
Y6398D1*
X17287Y14816D2*
X16816D1*
X16587Y14587D1*
Y14087D1*
X16887Y13787D1*
Y11887D1*
X17887Y10887D1*
X24387D1*
X24987Y10287D1*
Y6429D1*
X24956Y6398D1*
D29*
X16493Y6487D3*
D3*
X20987Y12687D3*
X15887Y15587D3*
X23087Y14887D3*
X23487Y16987D3*
X22487Y17287D3*
Y8187D3*
X21787Y17387D3*
X20387Y10187D3*
X20024Y17787D3*
X17487Y19987D3*
X21387Y16194D3*
Y20587D3*
X17387Y6387D3*
X20987Y11287D3*
X16487Y16587D3*
X17850Y16538D2*
D14*
X20033D1*
X17850Y16461D2*
X20033D1*
X17850Y16383D2*
X20033D1*
X17850Y16306D2*
X20033D1*
X17850Y16229D2*
X20033D1*
X17850Y16151D2*
X20033D1*
X17850Y16074D2*
X20033D1*
X17850Y15996D2*
X20033D1*
X17850Y15919D2*
X20033D1*
X17850Y15841D2*
X20033D1*
X17850Y15764D2*
X20033D1*
X17850Y15687D2*
X20033D1*
X17850Y15609D2*
X20033D1*
X17850Y15532D2*
X20033D1*
X17850Y15454D2*
X20033D1*
X17850Y15377D2*
X20033D1*
X17850Y15299D2*
X20033D1*
X17850Y15222D2*
X20033D1*
X17850Y15145D2*
X20033D1*
X17850Y15067D2*
X20033D1*
X17850Y14990D2*
X20033D1*
X17850Y14912D2*
X20033D1*
X17850Y14835D2*
X20033D1*
X17850Y14757D2*
X20033D1*
X17850Y14680D2*
X20033D1*
X17850Y14603D2*
X20033D1*
X17850Y14525D2*
X20033D1*
X17850Y14448D2*
X20033D1*
X17842Y16604D2*
X17840Y16289D1*
X17842Y16256D1*
X17840Y15698D1*
X17842Y15665D1*
X17840Y15108D1*
X17842Y15075D1*
X17840Y14517D1*
X17842Y14484D1*
Y14404D1*
X18072Y14406D1*
X18157Y14404D1*
X18190Y14406D1*
X18747Y14404D1*
X18780Y14406D1*
X19338Y14404D1*
X19371Y14406D1*
X19928Y14404D1*
X19961Y14406D1*
X20041D1*
X20040Y14635D1*
X20041Y14917D1*
X20040Y14950D1*
X20041Y15114D1*
X20040Y15147D1*
X20041Y15705D1*
X20040Y15738D1*
X20041Y16295D1*
X20040Y16328D1*
Y16605D1*
X19810Y16604D1*
X19725Y16605D1*
X19692Y16604D1*
X19135Y16605D1*
X19102Y16604D1*
X18544Y16605D1*
X18511Y16604D1*
X17954Y16605D1*
X17920Y16604D1*
X17840D1*
X17842Y16374D1*
X17840Y16092D1*
X17842Y16059D1*
X17840Y15502D1*
X17842Y15469D1*
X17840Y15305D1*
X17842Y15272D1*
X17840Y14714D1*
X17842Y14681D1*
Y14524D1*
Y14917D2*
Y14406D1*
X18354Y14404D1*
X18387Y14406D1*
X18944Y14404D1*
X18977Y14406D1*
X19535Y14404D1*
X19568Y14406D1*
X19731Y14404D1*
X19765Y14406D1*
X19922D1*
X20040Y14517D2*
Y15311D1*
Y15902D1*
Y16492D1*
Y16604D1*
X19528Y16605D1*
X19495Y16604D1*
X18938Y16605D1*
X18905Y16604D1*
X18347Y16605D1*
X18314Y16604D1*
X18150Y16605D1*
X18117Y16604D1*
X17960D1*
D15*
X18787Y7587D3*
Y6918D3*
X14187Y9087D3*
Y8418D3*
D16*
X13387Y2587D3*
D17*
X14387D3*
D16*
X17087D3*
D17*
X18087D3*
X19087D3*
X20087D3*
D16*
X26437Y18980D3*
D17*
Y17980D3*
Y16980D3*
Y15980D3*
Y14980D3*
Y13980D3*
Y12980D3*
Y11980D3*
Y10980D3*
D19*
X17287Y16587D3*
Y16391D3*
Y16194D3*
Y15997D3*
Y15800D3*
Y15603D3*
Y15406D3*
Y15209D3*
Y15013D3*
Y14816D3*
Y14619D3*
Y14422D3*
D20*
X17858Y13851D3*
X18055D3*
X18252D3*
X18449D3*
X18646D3*
X18843D3*
X19039D3*
X19236D3*
X19433D3*
X19630D3*
X19827D3*
X20024D3*
D19*
X20594Y14422D3*
Y14619D3*
Y14816D3*
Y15013D3*
Y15209D3*
Y15406D3*
Y15603D3*
Y15800D3*
Y15997D3*
Y16194D3*
Y16391D3*
Y16587D3*
D20*
X20024Y17158D3*
X19827D3*
X19630D3*
X19433D3*
X19236D3*
X19039D3*
X18843D3*
X18646D3*
X18449D3*
X18252D3*
X18055D3*
X17858D3*
D22*
X15587Y7587D3*
X16493D3*
X17398D3*
D23*
X16493Y9871D3*
D15*
X15787Y14287D3*
Y14957D3*
X16487Y17187D3*
Y17857D3*
D24*
X17487Y18187D3*
X18157D3*
X20287Y12687D3*
X19618D3*
D25*
X15087Y22087D3*
X15599D3*
X22487Y17987D3*
X22999D3*
D16*
X15887Y20987D3*
D17*
X14887D3*
X13887D3*
X12887D3*
X11887D3*
D26*
X13687Y13587D3*
Y17328D3*
D15*
X15387Y18187D3*
Y18857D3*
D24*
X15587Y12887D3*
X16257D3*
X20387Y8787D3*
X21057D3*
X20387Y8087D3*
X21057D3*
D27*
X22987Y6398D3*
D28*
Y1476D3*
X24956Y6398D3*
Y1476D3*
D16*
X9787Y2587D3*
D17*
X10787D3*
M02*
